<?xml version="1.0" encoding="UTF-8"?>
<!-- Created with EazyDraw for Mac ( http://www.eazydraw.com/ ) -->

<svg
    version="1.1"
    xmlns:dc="http://purl.org/dc/elements/1.1/"
    xmlns:cc="http://creativecommons.org/ns#"
    xmlns:rdf="http://www.w3.org/1999/02/22-rdf-syntax-ns#"
    xmlns:svg="http://www.w3.org/2000/svg"
    xmlns:xlink="http://www.w3.org/1999/xlink"
    xmlns="http://www.w3.org/2000/svg"
    width="437.349366017"
    height="455.041190826"
    viewBox="0, 0, 437.349366017, 455.041190826"
    preserveAspectRatio="none"
    id="svg2">
   <defs
       id="defs_1C931FCF"/>
   <metadata
       id="metadata7">
      <rdf:RDF>
         <cc:Work
             rdf:about="">
            <dc:format>image/svg+xml</dc:format>
            <dc:type rdf:resource="http://purl.org/dc/dcmitype/StillImage"/>
            <dc:title></dc:title>
         </cc:Work>
      </rdf:RDF>
   </metadata>
   <g
       id="layer_Paper"
       style="fill:#000000;fill-opacity:1;stroke:#000000;stroke-opacity:1;fill-rule:nonzero;stroke-linecap:square;stroke-linejoin:miter;stroke-width:1;stroke-miterlimit:10">
      <path
          style="stroke:none"
          id="B283D0BF"
          d="M353.634,3.361735839913 C370.172,-4.341264160192 390.533,2.052735839829 402.25,15.3297358397 C437.901,47.5977358397 436.96,103.42073584 418.983,144.64473584 C404.446,185.05173584 372.239,214.74873584 340.473,242.00073584
C319.425,259.85873584 293.423,272.01673584 266.105,276.14673584 C243.742,257.28873584 249.457,222.78873584 251.886,196.70573584 C263.412,144.01573584 271.623,87.8797358399 304.449,43.2767358397 C317.359,26.4157358397 332.892,10.1297358397 353.634,3.361735839913
z"/>
      <path
          style="stroke:none"
          id="8383D0BF"
          d="M49.646,122.93873584 C47.432,109.49773584 62.702,105.84473584 69.879,115.49873584 C81.1,131.35173584 93.734,147.70673584 106.539,160.87273584 C125.353,184.61273584 136.544,212.80473584 140.558,241.81773584
C119.504,223.33573584 97.8279999999,202.84373584 69.383,197.02073584 C48.8929999999,193.76573584 26.812,197.47273584 6.840999999914,195.25173584 C6.840999999914,195.25173584 -0.066000000027,193.81373584 0.05,187.35373584
C0.18500000004,179.85273584 7.483999999937,179.85273584 7.483999999937,179.85273584 C48.7399999999,178.28573584 96.12,195.51673584 131.626,223.70873584 C123.922,198.45273584 108.039,165.13173584 85.419,150.22073584
C70.258,143.20273584 50.165,132.47073584 49.646,122.93873584 z"/>
      <path
          style="stroke:none"
          id="D383D0BF"
          d="M149.704,251.65573584 C185.289,229.47073584 224.819,272.26173584 223.509,310.11073584 C218.554,355.01173584 187.92,399.76273584 142.626,412.10173584 C124.515,415.30173584 97.448,417.55373584 90.3749999999,395.56473584
C78.781,375.70573584 92.6569999999,346.52673584 98.334,327.33873584 C104.404,341.23873584 115.368,343.39373584 123.982,337.32273584 C130.339,332.43473584 130.803,321.86273584 127.506,316.37473584 C124.031,311.24673584 114.388,307.76073584 104.403,310.69673584
C110.865,285.63673584 132.163,267.18973584 149.704,251.65573584 z"/>
      <path
          style="stroke:none"
          id="2483D0BF"
          d="M321.243,294.94373584 C335.53,294.37973584 349.749,296.38573584 363.783,298.88973584 C368.734,313.92773584 370.483,330.09273584 368.734,345.81673584 C364.776,382.45373584 356.717,415.53573584 334.147,441.54873584
C315.583,462.18673584 287.849,456.52673584 275.821,441.61173584 C290.137,418.93073584 304.828,400.32473584 312.218,375.94973584 C322.368,350.33173584 323.312,322.13773584 321.243,294.94373584 z"/>
      <path
          style="stroke:none"
          id="6483D0BF"
          d="M246.876,304.84173584 C257.033,301.32973584 274.334,296.45273584 285.048,297.21273584 C290.066,333.48173584 282.839,375.76573584 258.715,404.27173584 C247.726,415.11273584 232.645,420.14173584 222.507,407.27573584
C209.224,389.17573584 227.793,379.06373584 237.974,357.00573584 C244.33,338.34573584 250.694,323.50473584 246.876,304.84173584 z"/>
      <path
          style="stroke:none"
          id="A7FDBACF"
          d="M402.519,320.95773584 C420.588458848,335.870126786 438.422606996,357.638386046 437.244,394.47773584 C433.035055556,423.84223584 379.80437037,459.569754358 361.803,453.27873584 C393.611,431.22173584 409.305,368.03173584 402.519,320.95773584
z"/>
   </g>
</svg>
